<svg width="1728" height="1117" viewBox="0 0 1728 1117" fill="none" xmlns="http://www.w3.org/2000/svg">
<g clip-path="url(#clip0_52_2676)">
<rect width="1728" height="1117" fill="white"/>
<rect width="1728" height="1120" fill="#E9E9E9"/>
<path d="M1149.25 148.654L1044.25 148.654L1008.82 -0.656027L1187.82 -0.656026L1149.25 148.654Z" fill="#EEEEEE"/>
<path d="M1275.25 303.654L1107.25 303.654L1154.25 157.654L1294.25 231.654L1275.25 303.654Z" fill="#EEEEEE"/>
<path d="M1100.5 298.654L1047.25 156.654L1146.25 156.654L1100.5 298.654Z" fill="#EEEEEE"/>
<path d="M622.254 70.6538L330.253 -0.346198L662.253 -0.346199L622.254 70.6538Z" fill="#EEEEEE"/>
<path d="M497.753 287.655L293.253 -0.345213L618.253 78.0331L497.753 287.655Z" fill="#EEEEEE"/>
<path d="M1440.25 575.654L1284.25 312.654L1440.25 312.654L1440.25 575.654Z" fill="#EEEEEE"/>
<path d="M684.253 -0.345703L992.253 -1.34534L917.251 148.653L684.253 -0.345703Z" fill="#EEEEEE"/>
<path d="M704 1038L480 1071L527.254 891.654L704 1038Z" fill="#EEEEEE"/>
<path d="M1433.25 304.654L1283.25 303.654L1301.25 234.654L1433.25 304.654Z" fill="#EEEEEE"/>
<path d="M1.63036 738.616L160.253 738.616L140.253 809.655L1.63036 738.616Z" fill="#EEEEEE"/>
<path d="M1440.25 299.034L1157.25 150.654L1195.25 3.65381L1440.25 299.034Z" fill="#EEEEEE"/>
<path d="M1000.25 0.65431L1036.25 150.654L925.254 150.654L1000.25 0.65431Z" fill="#EEEEEE"/>
<path d="M921.254 159.654L1083.25 304.034L921.254 532.654L921.254 159.654Z" fill="#EEEEEE"/>
<path d="M1093.25 301.654L932.253 158.654L1039.25 158.654L1093.25 301.654Z" fill="#EEEEEE"/>
<path d="M1440.25 287.155L1202.25 -0.34476L1728 0L1440.25 287.155Z" fill="#EEEEEE"/>
<path d="M294.253 890.653L399.253 890.653L360.5 931.499L248 1043L294.253 890.653Z" fill="#EEEEEE"/>
<path d="M169.38 738.264L335.38 738.264L288.34 883.655L148.38 812.264L169.38 738.264Z" fill="#EEEEEE"/>
<path d="M343.253 740.655L397.253 883.655L297.253 883.655L343.253 740.655Z" fill="#EEEEEE"/>
<path d="M0.253418 747.655L285.253 891.655L240 1045L0.253418 747.655Z" fill="#EEEEEE"/>
<path d="M471 1067L407.253 891.999L518.253 891.999L471 1067Z" fill="#EEEEEE"/>
<path d="M351.253 740.654L521.254 883.654L406.254 883.654L351.253 740.654Z" fill="#EEEEEE"/>
<path d="M1264.25 1041.65L1239.25 947.654L1373.25 872.654L1416.75 907.999L1264.25 1041.65Z" fill="#EEEEEE"/>
<path d="M1107.75 1041.65L1231.75 952.648L1256.26 1041.65L1107.75 1041.65Z" fill="#EEEEEE"/>
<path d="M1529.25 776.155L1236.25 939.654L1152.25 633.654L1529.25 776.155Z" fill="#EEEEEE"/>
<path d="M1106.25 1032.65L1200.25 837.653L1229.16 943.746L1106.25 1032.65Z" fill="#EEEEEE"/>
<path d="M0.252069 760.654L283.001 1117L1.99375e-06 1117L0.252069 760.654Z" fill="#EEEEEE"/>
<path d="M671.253 0.654297L913.253 155.654V532.654L504.253 295.654L671.253 0.654297Z" fill="#EEEEEE"/>
<path d="M0.253418 -0.345703H283.253L490.253 292.034L0.253418 346.654V-0.345703Z" fill="#EEEEEE"/>
<path d="M918.253 543.654L718 1038L530.253 882.654L918.253 543.654Z" fill="#EEEEEE"/>
<path d="M0.253418 354.655L490.253 300.655L337.253 730.655H0.253418V354.655Z" fill="#EEEEEE"/>
<path d="M347.253 727.655L499.253 302.654L910.253 540.654L526.253 877.154L347.253 727.655Z" fill="#EEEEEE"/>
<path d="M1088.75 311.654H1274.25L1548.75 774.654L925.254 539.654L1088.75 311.654Z" fill="#EEEEEE"/>
<path d="M924 552.5L1098 1041.5L728.064 1038L924 552.5Z" fill="#EEEEEE"/>
<path d="M931.254 549.654L1143.25 629.654L1197.25 827.655L1100.25 1028.65L931.254 549.654Z" fill="#EEEEEE"/>
<path d="M1423 902.5L1380 868.549L1536 778.55L1556 783L1423 902.5Z" fill="#EEEEEE"/>
<path d="M248 1055.5L402 899L464 1073.5L282 1099L248 1055.5Z" fill="#EEEEEE"/>
<path d="M711 1047L1023 1050L991.5 1117L805 1193.5L673 1111L711 1047Z" fill="#EEEEEE"/>
<path d="M1033 1048L1257 1049L1186 1110H1003L1033 1048Z" fill="#EEEEEE"/>
<path d="M1196 1111L1439.5 900V1118H1202L1196 1111Z" fill="#EEEEEE"/>
<path d="M1448 893L1728 632.5L1526.5 974.5L1448 1108V893Z" fill="#EEEEEE"/>
<path d="M1728 648V1111H1456L1728 648Z" fill="#EEEEEE"/>
<path d="M1449 293L1728 12V576H1449V293Z" fill="#EEEEEE"/>
<path d="M1560 778L1446.02 583.499L1770 583.5L1560 778Z" fill="#EEEEEE"/>
<path d="M621.702 1188.66L285 1106L701 1049L621.702 1188.66Z" fill="#EEEEEE"/>
</g>
<defs>
<clipPath id="clip0_52_2676">
<rect width="1728" height="1117" fill="white"/>
</clipPath>
</defs>
</svg>
