<svg width="296" height="70" viewBox="0 0 296 70" fill="none" xmlns="http://www.w3.org/2000/svg">
<path d="M282.197 70.0009L296 60.3086H282.197V70.0009Z" fill="#A44F00"/>
<path d="M0 5.99999C0 2.68629 2.68629 0 6 0H290C293.314 0 296 2.68629 296 6V60.3077H6.00001C2.6863 60.3077 0 57.6214 0 54.3077V5.99999Z" fill="#FF7A00"/>
<path d="M0 5.99999C0 2.68629 2.68629 0 6 0H290C293.314 0 296 2.68629 296 6V60.3077H6.00001C2.6863 60.3077 0 57.6214 0 54.3077V5.99999Z" fill="#F97316"/>
<path d="M0 5.99999C0 2.68629 2.68629 0 6 0H290C293.314 0 296 2.68629 296 6V60.3077H6.00001C2.6863 60.3077 0 57.6214 0 54.3077V5.99999Z" fill="#EA580C"/>
</svg>
